SplineFontDB: 3.0
FontName: PatentCure
FullName: Patent Cure
FamilyName: Patent Cure
Weight: Heavy
Copyright: Created by Justin Sheckler with FontForge 2.0 (http://fontforge.sf.net)
UComments: "2013-3-23: Created." 
Version: 001.000
ItalicAngle: 0
UnderlinePosition: -100
UnderlineWidth: 50
Ascent: 760
Descent: 240
LayerCount: 2
Layer: 0 0 "Back"  1
Layer: 1 0 "Fore"  0
XUID: [1021 691 -1653312711 7448654]
FSType: 0
OS2Version: 0
OS2_WeightWidthSlopeOnly: 0
OS2_UseTypoMetrics: 1
CreationTime: 1364069233
ModificationTime: 1364534386
PfmFamily: 17
TTFWeight: 800
TTFWidth: 5
LineGap: 90
VLineGap: 90
OS2TypoAscent: 0
OS2TypoAOffset: 1
OS2TypoDescent: 0
OS2TypoDOffset: 1
OS2TypoLinegap: 90
OS2WinAscent: 0
OS2WinAOffset: 1
OS2WinDescent: 0
OS2WinDOffset: 1
HheadAscent: 0
HheadAOffset: 1
HheadDescent: 0
HheadDOffset: 1
OS2Vendor: 'PfEd'
Lookup: 258 0 0 "kern"  {"NA" [150,15,0] "kern-1" [150,15,0] } ['kern' ('DFLT' <'dflt' > 'latn' <'dflt' > ) ]
MarkAttachClasses: 1
DEI: 91125
LangName: 1033 
Encoding: ISO8859-1
UnicodeInterp: none
NameList: AGL For New Fonts
DisplaySize: -48
AntiAlias: 1
FitToEm: 1
WidthSeparation: 50
WinInfo: 63 9 9
BeginPrivate: 0
EndPrivate
TeXData: 1 0 0 52428 26214 17476 0 1048576 17476 783286 444596 497025 792723 393216 433062 380633 303038 157286 324010 404750 52429 2506097 1059062 262144
BeginChars: 256 256

StartChar: J
Encoding: 74 74 0
Width: 736
VWidth: 0
Flags: W
HStem: 0 210<24 144> 0 121.755<175.823 412.736> 480 119.997<294 414 594 714>
VStem: 24 150<121.986 210> 24 120<0 90> 414 180<122.729 480>
LayerCount: 2
Fore
SplineSet
293.012695312 600 m 1x74
 293.012695312 599.997070312 l 1
 714 600 l 1
 714 480 l 1
 594 480 l 1
 594 120 l 2
 594 28.9423828125 503.564453125 0 414 0 c 2
 234 0 l 2x74
 174.219726562 0 144 30.2197265625 144 90 c 2
 144 0 l 1
 24 0 l 1xac
 24 210 l 1
 174 210 l 1xb4
 174 180 l 2
 174 120 174 120 233.232421875 121.754882812 c 1
 352.793945312 121.754882812 l 2
 413.249023438 121.754882812 414 118.797851562 414 180 c 2
 414 480 l 1
 294 480 l 1
 293.012695312 600 l 1x74
EndSplineSet
Validated: 524325
EndChar

StartChar: K
Encoding: 75 75 1
Width: 798
VWidth: 0
Flags: W
HStem: 0 150.134<653.589 774> 0 120.143<24 142.465 323.911 443.875> 479.857 119.965<24 143.964 323.911 383.893 443.875 503.857 683.804 773.777>
VStem: 143.964 179.947<299.911 479.857>
LayerCount: 2
Fore
SplineSet
24 599.822265625 m 1x70
 383.892578125 600 l 1
 383.892578125 479.857421875 l 1
 323.911132812 479.857421875 l 1
 323.911132812 299.911132812 l 1
 503.857421875 479.85546875 l 1
 443.875 479.85546875 l 1
 443.875 599.998046875 l 1
 774 600 l 1
 773.77734375 479.857421875 l 1
 683.803710938 480.036132812 l 1
 533.848632812 330.080078125 l 1
 533.848632812 330.080078125 601.327148438 150.133789062 713.794921875 150.133789062 c 2
 774 150 l 1
 774 0 l 1
 686.802734375 0 l 2xb0
 503.857421875 0 413.883789062 210.116210938 413.883789062 210.116210938 c 1
 323.911132812 120.142578125 l 1
 443.875 120.140625 l 1
 443.875 0 l 1
 24 0 l 1
 24 120.140625 l 1
 142.46484375 120.140625 l 1
 143.963867188 479.857421875 l 1
 24 479.857421875 l 1
 24 599.822265625 l 1x70
EndSplineSet
Validated: 524289
EndChar

StartChar: S
Encoding: 83 83 2
Width: 648
VWidth: 0
Flags: W
HStem: 0 209.938<24.001 143.965 173.955 173.955> 0 119.965<175.683 442.585> 239.929 119.965<205.795 442.585> 389.885 209.938<473.866 473.866 503.857 624> 479.858 120.141<205.516 472.138>
VStem: 24 179.946<361.463 478.289> 24.001 149.954<121.534 209.938> 443.876 180.124<121.298 238.594> 473.866 150.134<390 478.289> 503.857 120.143<509.85 599.822>
LayerCount: 2
Fore
SplineSet
143.96484375 599.999023438 m 2x6d
 413.884765625 599.822265625 l 2
 473.866210938 599.822265625 503.857421875 569.831054688 503.857421875 509.849609375 c 2
 503.857421875 599.822265625 l 1
 624 600 l 1x3440
 624 390 l 1
 473.866210938 389.884765625 l 1
 473.866210938 419.875976562 l 2x3080
 473.866210938 479.858398438 473.866210938 479.858398438 413.884765625 479.858398438 c 2
 263.928710938 479.858398438 l 2
 203.946289062 479.858398438 203.946289062 479.858398438 203.946289062 419.875976562 c 0
 203.946289062 359.893554688 205.446289062 359.893554688 263.928710938 359.893554688 c 2
 503.858398438 360.071289062 l 2
 593.83203125 360.071289062 625.322265625 331.580078125 625.322265625 241.606445312 c 2
 624 120 l 2
 624 30.0263671875 593.831054688 0 503.857421875 0 c 2
 233.9375 0 l 2
 173.955078125 0 143.96484375 29.9912109375 143.96484375 89.9736328125 c 2
 144 0 l 1
 24 0 l 1x6c40
 24.0009765625 210.114257812 l 1
 173.955078125 209.9375 l 1
 173.955078125 179.946289062 l 2xa2
 173.955078125 119.96484375 173.955078125 119.96484375 233.9375 119.96484375 c 2
 383.893554688 119.963867188 l 2
 445.375 119.963867188 443.875976562 119.96484375 443.875976562 179.946289062 c 0
 443.875976562 239.928710938 445.375 239.928710938 383.893554688 239.928710938 c 2
 143.963867188 239.928710938 l 2
 53.9912109375 239.928710938 24 269.919921875 24 359.893554688 c 2
 24 479.857421875 l 2
 24 568.333007812 53.9912109375 599.999023438 143.96484375 599.999023438 c 2x6d
EndSplineSet
Validated: 524325
EndChar

StartChar: W
Encoding: 87 87 3
Width: 1124
VWidth: 0
Flags: W
HStem: 0 21G<285.75 450 674 838.25> 480 120<22 142 322 412 712 802 982 1102>
LayerCount: 2
Fore
SplineSet
22 480 m 1
 22 600 l 1
 412 600 l 1
 412 480 l 1
 322 480 l 1
 382 240 l 1
 532 600 l 1
 592 600 l 1
 742 240 l 1
 802 480 l 1
 712 480 l 1
 712 600 l 1
 1102 600 l 1
 1102 480 l 1
 982 480 l 1
 832 0 l 1
 682 0 l 1
 562 300 l 1
 442 0 l 1
 292 0 l 1
 142 480 l 1
 22 480 l 1
EndSplineSet
Validated: 1
EndChar

StartChar: A
Encoding: 65 65 4
Width: 886
VWidth: 0
Flags: W
HStem: 0 120<23 131.483 311.483 413 473 574.518 754.518 863> 180 120<384.208 501.792> 480 120<173 276.933>
LayerCount: 2
Fore
SplineSet
173 600 m 1
 563 600 l 1
 754.517578125 120 l 1
 863 120 l 1
 863 0 l 1
 473 0 l 1
 473 120 l 1
 574.517578125 120 l 1
 550.275390625 180 l 1
 335.724609375 180 l 1
 311.483398438 120 l 1
 413 120 l 1
 413 0 l 1
 23 0 l 1
 23 120 l 1
 131.483398438 120 l 1
 276.932617188 480 l 1
 173 480 l 1
 173 600 l 1
443 445.515625 m 1
 384.208007812 300 l 1
 501.791992188 300 l 1
 443 445.515625 l 1
EndSplineSet
Validated: 524289
EndChar

StartChar: B
Encoding: 66 66 5
Width: 707
VWidth: 0
Flags: W
HStem: 0 120<24 144 324 502.43> 240 120<324 502.43> 480 120<24 144 324 502.43>
VStem: 144 180<120 240 360 480> 504 180<121.57 236.719 363.281 478.43>
CounterMasks: 1 e0
LayerCount: 2
Fore
SplineSet
24 600 m 1
 24 600 474 600 564 600 c 0
 654 600 684 570 684 480 c 2
 684 420 l 2
 684 330 654 300 594 300 c 1
 654 300 684 270 684 180 c 2
 684 120 l 2
 684 30 655 0 564 0 c 0
 473 0 24 0 24 0 c 1
 24 120 l 1
 144 120 l 1
 144 480 l 1
 24 480 l 1
 24 600 l 1
324 480 m 1
 324 360 l 1
 444 360 l 2
 504 360 504 360 504 420 c 0
 504 480 504 480 444 480 c 2
 324 480 l 1
324 240 m 1
 324 120 l 1
 444 120 l 2
 504 120 504 120 504 180 c 0
 504 240 504 240 444 240 c 2
 324 240 l 1
EndSplineSet
Validated: 1
EndChar

StartChar: C
Encoding: 67 67 6
Width: 648
VWidth: 0
Flags: W
HStem: 0 120.003<205.569 472.429> 0.000976562 209.999<473.998 592.176> 390 210<473.999 473.999 504 623.999> 479.999 120.001<205.569 472.271>
VStem: 24 179.999<121.573 478.429> 473.998 150.001<121.567 209.998 390 478.363> 503.999 120.001<510 600>
LayerCount: 2
Fore
SplineSet
24 480.001953125 m 0x8a
 24 570.001953125 54 600 144 600 c 2
 413.999023438 600 l 2x9a
 473.999023438 600 503.999023438 570 503.999023438 510 c 2
 504 600 l 1x2a
 624 600 l 1x1a
 623.999023438 390 l 1
 473.999023438 390 l 1x2c
 473.999023438 417.447265625 l 2
 473.999023438 480 473.999023438 480 413.999023438 480 c 2
 263.999023438 479.999023438 l 2
 203.999023438 479.998046875 203.999023438 479.999023438 203.999023438 419.999023438 c 0
 203.999023438 389.998046875 203.999023438 210.083007812 203.999023438 180.002929688 c 0
 203.999023438 120.002929688 203.999023438 120.00390625 263.999023438 120.002929688 c 2x9c
 413.999023438 120.000976562 l 2
 473.999023438 120.000976562 473.999023438 120.000976562 473.998046875 179.860351562 c 2
 473.998046875 210 l 1
 623.998046875 210.000976562 l 1
 623.998046875 210.000976562 623.999023438 210.000976562 623.999023438 120.000976562 c 0x4c
 623.999023438 30.0009765625 593.999023438 0.0009765625 503.999023438 0.0009765625 c 2x4a
 144 0 l 2
 54 0 24 30.0009765625 24 120.000976562 c 0
 24 210.000976562 24 389.999023438 24 480.001953125 c 0x8a
EndSplineSet
Validated: 524321
EndChar

StartChar: D
Encoding: 68 68 7
Width: 737
VWidth: 0
Flags: W
HStem: 0 119.858<24 143.56 324 528.28> 479.786 120.214<24.2998 143.561 324 531.286>
VStem: 143.56 180.44<120 479.786> 534.293 179.787<126.972 477.953>
LayerCount: 2
Fore
SplineSet
24.2998046875 600 m 1
 590.6328125 599.645507812 l 2
 680.301757812 599.58984375 712.5859375 569.11328125 712.884765625 479.431640625 c 2
 714.080078125 119.859375 l 2
 714.37890625 29.9658203125 684.115234375 -0.056640625 593.026367188 0 c 2
 24 0 l 1
 24 119.858398438 l 1
 143.559570312 119.858398438 l 1
 143.560546875 479.786132812 l 1
 24.0009765625 479.786132812 l 1
 24.2998046875 600 l 1
324 480 m 1
 324 120 l 1
 473.168945312 119.858398438 l 2
 533.09765625 119.801757812 534.48046875 149.823242188 534.29296875 179.788085938 c 2
 532.798828125 418.790039062 l 2
 532.416015625 480 534 480 472.870117188 478.71875 c 1
 324 480 l 1
EndSplineSet
Validated: 524321
EndChar

StartChar: E
Encoding: 69 69 8
Width: 709
VWidth: 0
Flags: W
HStem: 0 210<564 684> 0 120<24 144 324 532.271> 240 120<324 444> 390 210<534 534 564 684> 480 120<24 144 324 532.271>
VStem: 144 180<120 240 360 480> 534 150<121.57 210 390 478.42> 564 120<0 90 510 600>
LayerCount: 2
Fore
SplineSet
24 600 m 1x6d
 474 600 l 2x6d
 534 600 564 570 564 510 c 2
 564 600 l 1
 684 600 l 1x35
 684 390 l 1
 534 390 l 1x36
 534 419.611328125 l 2
 534 480 534 480 474 480 c 2
 324 480 l 1
 324 360 l 1
 444 360 l 1
 444 240 l 1
 324 240 l 1
 324 120 l 1
 474 120 l 2x6e
 534 120 534 120 534 180 c 2
 534 210 l 1
 684 210 l 1xa6
 684 0 l 1
 564 0 l 1xa5
 564 90 l 2
 564 30 534 0 474 0 c 2
 24 0 l 1
 24 120 l 1
 144 120 l 1
 144 480 l 1
 24 480 l 1
 24 600 l 1x6d
EndSplineSet
Validated: 524289
EndChar

StartChar: F
Encoding: 70 70 9
Width: 708
VWidth: 0
Flags: W
HStem: 0 120<24 144 324 444> 240 120<324 444> 390 210<534 534 564.375 684> 480 120<24 144 324 532.271>
VStem: 144 180<120 240 360 480> 534 150<390 478.42> 564 120<510 600>
LayerCount: 2
Fore
SplineSet
24 600 m 1xdc
 474 600 l 2xdc
 534 600 564 570 564 510 c 2
 564.375 600 l 1
 684 600 l 1xea
 684 390 l 1
 534 390 l 1xec
 534 419.611328125 l 2
 534 480 534 480 474 480 c 2
 324 480 l 1
 324 360 l 1
 444 360 l 1
 444 240 l 1
 324 240 l 1
 324 120 l 1
 444 120 l 1
 444 0 l 1
 24 0 l 1
 24 120 l 1
 144 120 l 1
 144 480 l 1
 24 480 l 1
 24 600 l 1xdc
EndSplineSet
Validated: 524289
EndChar

StartChar: G
Encoding: 71 71 10
Width: 649
VWidth: 0
Flags: W
HStem: 0 119.665<205.459 471.502> 239.509 91.2451<412.91 472.426> 390 210<504 624> 478.837 121.163<205.234 471.503>
VStem: 24 180<121.035 477.698> 474 150<121.601 238.012 390 478.026> 504 120<510 600>
LayerCount: 2
Fore
SplineSet
24.0009765625 478.658203125 m 2xda
 24.0009765625 568.40625 54.251953125 600 144 600 c 2xda
 412.91015625 599.999023438 l 2
 472.7421875 599.999023438 504 569.83203125 504 510 c 2
 504 600 l 1
 624 600 l 1xea
 624 390 l 1
 474 390 l 1xec
 474 420 l 2
 474 480 474 480 412.909179688 478.836914062 c 1
 263.328125 478.836914062 l 2
 203.49609375 478.836914062 204 479.83203125 204 420 c 2
 204 180 l 2
 204 120.16796875 203.497070312 119.532226562 263.328125 119.665039062 c 2
 414 120 l 2
 473.83203125 120 474 120.16796875 474 180 c 0xdc
 474 239.83203125 472.741210938 239.508789062 412.909179688 239.508789062 c 1
 412.91015625 330.75390625 l 1
 624 330 l 1
 624 0 l 1
 502.657226562 0.1796875 l 1
 504 90 l 2
 504 30.16796875 472.741210938 0.1796875 412.908203125 0.1796875 c 2
 143.663085938 0 l 2
 53.9150390625 -0.0595703125 23.9990234375 29.9169921875 24 119.665039062 c 2
 24.0009765625 478.658203125 l 2xda
EndSplineSet
Validated: 524325
EndChar

StartChar: H
Encoding: 72 72 11
Width: 858
VWidth: 0
Flags: W
HStem: 0 120<24 144 324 384 474 534 714 834> 240 120<324 534> 480 120<24 144 324 384 474 534 714 834>
VStem: 144 180<120 240 360 480> 534 180<120 240 360 480>
CounterMasks: 1 e0
LayerCount: 2
Fore
SplineSet
834 600 m 1
 834 480 l 1
 714 480 l 1
 714 120 l 1
 834 120 l 1
 834 0 l 1
 474 0 l 1
 474 120 l 1
 534 120 l 1
 534 240 l 1
 324 240 l 1
 324 120 l 1
 384 120 l 1
 384 0 l 1
 24 0 l 1
 24 120 l 1
 144 120 l 1
 144 480 l 1
 24 480 l 1
 24 600 l 1
 384 600 l 1
 384 480 l 1
 324 480 l 1
 324 360 l 1
 534 360 l 1
 534 480 l 1
 474 480 l 1
 474 600 l 1
 834 600 l 1
EndSplineSet
Validated: 1
EndChar

StartChar: I
Encoding: 73 73 12
Width: 468
VWidth: 0
Flags: W
HStem: 0 120<24 144 323.999 443.999> 479.999 120.001<24 144 323.999 443.999>
VStem: 144 179.999<120 479.999>
LayerCount: 2
Fore
SplineSet
443.999023438 600 m 1
 443.999023438 479.999023438 l 1
 323.999023438 479.999023438 l 1
 323.999023438 120 l 1
 443.999023438 120 l 1
 443.999023438 0 l 1
 24 0 l 1
 24 120 l 1
 144 120 l 1
 144 479.999023438 l 1
 24 479.999023438 l 1
 24 600 l 1
 443.999023438 600 l 1
EndSplineSet
Validated: 524289
EndChar

StartChar: L
Encoding: 76 76 13
Width: 737
VWidth: 0
Flags: W
HStem: 0 210.371<562.7 562.942 593 713> 0 119.886<23.1074 142.993 322.822 559.555> 480.114 119.886<23 143 322.715 442.6>
VStem: 142.993 179.829<119.886 480> 562.626 150.374<121.986 210> 593 120<0 90>
LayerCount: 2
Fore
SplineSet
442.599609375 599.82421875 m 1x74
 442.600585938 480.114257812 l 1
 322.71484375 480.114257812 l 1
 322.822265625 119.885742188 l 1x74
 502.54296875 120.45703125 l 2
 562.486328125 120.45703125 562.486328125 120.45703125 562.625976562 178.901367188 c 2
 562.700195312 210.37109375 l 1
 713 210 l 1xb8
 713 0 l 1
 593 0 l 1xb4
 593 90 l 2
 593 30.056640625 562.942382812 0 503 0 c 2
 23 0 l 1
 23.107421875 119.885742188 l 1
 142.993164062 119.885742188 l 1
 143 480 l 1
 23 480.114257812 l 1
 23 600 l 1
 442.599609375 599.821289062 l 1
 442.599609375 599.82421875 l 1x74
EndSplineSet
Validated: 524289
EndChar

StartChar: M
Encoding: 77 77 14
Width: 1068
VWidth: 0
Flags: W
HStem: 0 120<24 144 323.999 383.999 683.999 743.999 923.998 1044> 479.999 120.001<24 144 923.998 1044>
VStem: 144 179.999<120 359.999> 743.999 179.999<120 359.999>
LayerCount: 2
Fore
SplineSet
24 600 m 1
 353.999023438 599.999023438 l 1
 533.999023438 240 l 1
 713.999023438 599.999023438 l 1
 1043.99804688 600 l 1
 1043.99804688 479.999023438 l 1
 923.998046875 479.999023438 l 1
 923.998046875 120 l 1
 1043.99804688 120 l 1
 1043.99804688 0 l 1
 683.999023438 0 l 1
 683.999023438 120 l 1
 743.999023438 120 l 1
 743.999023438 359.999023438 l 1
 563.999023438 0 l 1
 503.999023438 0 l 1
 323.999023438 359.999023438 l 1
 323.999023438 120 l 1
 383.999023438 120 l 1
 383.999023438 0 l 1
 24 0 l 1
 24 120 l 1
 144 120 l 1
 144 479.999023438 l 1
 24 479.999023438 l 1
 24 600 l 1
EndSplineSet
Validated: 524289
EndChar

StartChar: N
Encoding: 78 78 15
Width: 886
VWidth: 0
Flags: W
HStem: 0 120<24 144 324 414> 480 120<24 144 474 564 744 864>
VStem: 144 180<120 360> 564 180<240 480>
LayerCount: 2
Fore
SplineSet
24 600 m 1
 324 600 l 1
 564 240 l 1
 564 480 l 1
 474 480 l 1
 474 600 l 1
 864 600 l 1
 864 480 l 1
 744 480 l 1
 744 0 l 1
 564 0 l 1
 324 360 l 1
 324 120 l 1
 414 120 l 1
 414 0 l 1
 24 0 l 1
 24 120 l 1
 144 120 l 1
 144 480 l 1
 24 480 l 1
 24 600 l 1
EndSplineSet
Validated: 1
EndChar

StartChar: O
Encoding: 79 79 16
Width: 647
VWidth: 0
Flags: W
HStem: 0.000976562 119.999<205.57 442.43> 480 120<205.57 441.083>
VStem: 24 180<121.57 478.43> 444 180<121.57 478.43>
LayerCount: 2
Fore
SplineSet
144 600 m 2
 504 600 l 2
 593.775390625 600 623.326171875 570 624 480 c 2
 624 120 l 1
 621.302734375 29.9990234375 595.197265625 -0.0009765625 504 0 c 2
 146.697265625 0.0009765625 l 2
 54 0 24 30 24 120 c 2
 24 480 l 2
 24 570 54 600 144 600 c 2
264 480 m 2
 204 480 204 480 204 420 c 2
 204 180 l 2
 204 120 204 120 264 120 c 2
 384 120 l 2
 444 120 444 120 444 180 c 2
 442.5 419.999023438 l 2
 442.125 480.001953125 444 480 384 480 c 2
 264 480 l 2
EndSplineSet
Validated: 524321
EndChar

StartChar: P
Encoding: 80 80 17
Width: 706
VWidth: 0
Flags: W
HStem: 0 120.212<24.2988 143.858 323.646 444> 240.07 119.858<324.843 501.867> 480.143 119.857<24.2998 143.56 324 501.867>
VStem: 143.56 180.44<120.212 240.07 360 480> 503.435 180.983<361.497 478.219>
LayerCount: 2
Fore
SplineSet
24.2998046875 600 m 1
 24.2998046875 600 471.299804688 600 560.969726562 600 c 0
 650.639648438 600 683.6875 569.681640625 684 480 c 2
 684.41796875 359.9296875 l 2
 684.731445312 270.036132812 654.453125 240.0703125 563.36328125 240.0703125 c 2
 324.842773438 240.0703125 l 1
 323.646484375 120.211914062 l 1
 444 120 l 1
 444 0 l 1
 24 0.353515625 l 1
 24.298828125 120.2109375 l 1
 143.858398438 120.2109375 l 1
 143.559570312 480.142578125 l 1
 24 480.142578125 l 1
 24.2998046875 600 l 1
324 480 m 1
 324 360 l 1
 324 360 413.541015625 359.928710938 443.504882812 359.928710938 c 0
 503.434570312 359.928710938 503.434570312 359.928710938 503.434570312 419.857421875 c 0
 503.434570312 479.787109375 503.434570312 479.787109375 443.504882812 479.787109375 c 2
 324 480 l 1
EndSplineSet
Validated: 524321
EndChar

StartChar: Q
Encoding: 81 81 18
Width: 647
VWidth: 0
Flags: W
HStem: -150 120<384 564> 0 120<205.57 264 384 442.43> 480 120<205.57 442.575>
VStem: 24 180<121.57 478.43> 264 120<-30 0 120 180> 444 180<121.57 478.43>
CounterMasks: 1 1c
LayerCount: 2
Fore
SplineSet
144 600 m 2
 501.302734375 599.999023438 l 2
 591.079101562 599.999023438 624 569.788085938 624 480 c 2
 624 120 l 2
 624 30 594 0 504 0 c 2
 384 0 l 1
 384 -30 l 1
 564 -30 l 1
 564 -150 l 1
 384 -150 l 2
 294 -150 264 -120 264 -30 c 0
 264 0 264 0 264 0 c 1
 144 0 l 2
 54 0 24 30 24 120 c 2
 24 480 l 2
 24 570 54 600 144 600 c 2
264 480 m 2
 204 480 204 480 204 420 c 2
 204 180 l 2
 204 120 204 120 264 120 c 1
 264 180 l 1
 384 180 l 1
 384 120 l 1
 444 120 444 120 444 180 c 2
 444 420 l 2
 444.330078125 480 444 480 384 480 c 2
 264 480 l 2
EndSplineSet
Validated: 524321
EndChar

StartChar: R
Encoding: 82 82 19
Width: 766
VWidth: 0
Flags: W
HStem: 0 120<24 144 324 444 684.039 744> 210 150<324 502.43> 480 120<24 144 324 502.43>
VStem: 144 180<120 210 360 480> 504 180<120.039 209.961 361.721 478.43>
LayerCount: 2
Fore
SplineSet
24 600 m 1
 564 600 l 2
 654 600 684 600 684 510 c 2
 684 390 l 2
 684 330 654 300 594 300 c 1
 654 300 684 270 684 210 c 2
 684 150 l 2
 684 120 684 120 714 120 c 2
 744 120 l 1
 744 0 l 1
 624 0 l 2
 534 0 504 30 504 120 c 2
 504 180 l 2
 504 210 504 210 474 210 c 2
 324 210 l 1
 324 120 l 1
 444 120 l 1
 444 0 l 1
 24 0 l 1
 24 120 l 1
 144 120 l 1
 144 480 l 1
 24 480 l 1
 24 600 l 1
324 480 m 1
 324 360 l 1
 444 360 l 2
 504 360 504 360 504 420 c 0
 504 480 504 480 444 480 c 2
 324 480 l 1
EndSplineSet
Validated: 1
EndChar

StartChar: T
Encoding: 84 84 20
Width: 767
VWidth: 0
Flags: W
HStem: 0 120<173 293 473 593> 390 210<23 143 593 593 623 743> 480 120<174.729 293 473 591.271>
VStem: 23 150<390 478.472> 23 120<510 600> 293 180<120 480> 593 150<390 478.43> 623 120<510 600>
LayerCount: 2
Fore
SplineSet
743 600 m 1xcd
 743 390 l 1
 593 390 l 1xc6
 593 420 l 2
 593 480 593 480 533 480 c 2
 473 480 l 1
 473 120 l 1
 593 120 l 1
 593 0 l 1
 173 0 l 1
 173 120 l 1
 293 120 l 1
 293 480 l 1
 233 480 l 2xb6
 173 480 173 480 173 421.603515625 c 2
 173 390 l 1
 23 390 l 1xd6
 23 600 l 1
 143 600 l 1xcc
 143 510 l 2
 143 570 173 600 233 600 c 2
 533 600 l 2xac
 593 600 623 570 623 510 c 2
 623 600 l 1
 743 600 l 1xcd
EndSplineSet
Validated: 524289
EndChar

StartChar: U
Encoding: 85 85 21
Width: 854
VWidth: 0
Flags: W
HStem: 0 120<323.57 530.43> 480 120<22 142 322 382 472 532 712 832>
VStem: 142 180<121.57 480> 532 180<121.57 480>
LayerCount: 2
Fore
SplineSet
22 600 m 1
 382 600 l 1
 382 480 l 1
 322 480 l 1
 322 180 l 2
 322 120 322 120 382 120 c 2
 472 120 l 2
 532 120 532 120 532 180 c 2
 532 480 l 1
 472 480 l 1
 472 600 l 1
 832 600 l 1
 832 480 l 1
 712 480 l 1
 712 120 l 2
 712 30 682 0 592 0 c 2
 262 0 l 2
 172 0 142 30 142 120 c 2
 142 480 l 1
 22 480 l 1
 22 600 l 1
EndSplineSet
Validated: 1
EndChar

StartChar: V
Encoding: 86 86 22
Width: 884
VWidth: 0
Flags: W
HStem: 0 21G<372 512> 480 120<22 142 322 382 502 562 742 862>
LayerCount: 2
Fore
SplineSet
862 600 m 1
 862 480 l 1
 742 480 l 1
 502 0 l 1
 382 0 l 1
 142 480 l 1
 22 480 l 1
 22 600 l 1
 382 600 l 1
 382 480 l 1
 322 480 l 1
 442 210 l 1
 562 480 l 1
 502 480 l 1
 502 600 l 1
 862 600 l 1
EndSplineSet
Validated: 1
EndChar

StartChar: X
Encoding: 88 88 23
Width: 798
VWidth: 0
Flags: W
HStem: 0 120<24 174 624 774> 480 120<24 174 624 774>
LayerCount: 2
Fore
SplineSet
24 600 m 1
 294 600 l 1
 399 447.1875 l 1
 504 600 l 1
 774 600 l 1
 774 480 l 1
 624 480 l 1
 500.25 300 l 1
 624 120 l 1
 774 120 l 1
 774 0 l 1
 504 0 l 1
 399 152.8125 l 1
 294 0 l 1
 24 0 l 1
 24 120 l 1
 174 120 l 1
 297.75 300 l 1
 174 480 l 1
 24 480 l 1
 24 600 l 1
EndSplineSet
Validated: 524289
EndChar

StartChar: Y
Encoding: 89 89 24
Width: 764
VWidth: 0
Flags: W
HStem: 0 120<172 292 472 592> 480 120<22 112 292 352 412 472 652 742>
VStem: 292 180<120 240>
LayerCount: 2
Fore
SplineSet
22 600 m 1
 352 600 l 1
 352 480 l 1
 292 480 l 1
 382 360 l 1
 472 480 l 1
 412 480 l 1
 412 600 l 1
 742 600 l 1
 742 480 l 1
 652 480 l 1
 472 240 l 1
 472 120 l 1
 592 120 l 1
 592 0 l 1
 472 0 l 1
 292 0 l 1
 172 0 l 1
 172 120 l 1
 292 120 l 1
 292 240 l 1
 112 480 l 1
 22 480 l 1
 22 600 l 1
EndSplineSet
Validated: 1
EndChar

StartChar: Z
Encoding: 90 90 25
Width: 649
VWidth: 0
Flags: W
HStem: 0 210<505 625> 0 120<235 473.271> 390 210<25.001 145.001> 480 120<177.095 415>
VStem: 25 150.366<390 478.43> 25.001 120.365<510 600> 475 150<121.57 210> 505 120<0 90>
LayerCount: 2
Fore
SplineSet
25.0009765625 600 m 5x24
 145.000976562 600 l 5x24
 145.366210938 510 l 6
 145.366210938 570 175.366210938 600 235.366210938 600 c 6
 625 600 l 5
 625 480 l 5
 235 120 l 5
 415 120 l 6x55
 475 120 475 120 475 180 c 6
 475 210 l 5
 625 210 l 5x82
 625 0 l 5
 505 0 l 5x81
 505 90 l 6
 505 30 475 0 415 0 c 6
 25 0 l 5
 25 120 l 5
 415 480 l 5
 235.366210938 480 l 6x59
 175.366210938 480 175.366210938 480 175.366210938 420 c 6
 175.366210938 390 l 5
 25 390 l 5x29
 25.0009765625 600 l 5x24
EndSplineSet
Validated: 524289
EndChar

StartChar: a
Encoding: 97 97 97
Width: 584
VWidth: 0
Flags: W
HStem: 0 120<202.039 321.961 502 562> 180 120<202.025 321.961> 330 150<52 172> 360 120<202.081 321.961>
VStem: 22 180<120.04 179.994> 52 120<390 480> 322 180<120.039 179.961 300.039 359.961>
LayerCount: 2
Fore
SplineSet
52 480 m 1xe6
 172 480 l 1xe6
 172 390 l 2
 172 450 202 480 262 480 c 2
 382 480 l 2
 472 480 502 450 502 360 c 2xd6
 502 180 l 1
 502 120 l 1
 562 120 l 1
 562 0 l 1
 442 0 l 2
 412 0 382 30 382 60 c 1
 382 30 352 0 322 0 c 2
 142 0 l 2
 52 0 22 30 22 120 c 2
 22 180 l 2
 22 270 52 300 142 300 c 2
 292 300 l 2
 322 300 322 300 322 330 c 0xea
 322 360 322 360 292 360 c 2
 202 360 l 1xda
 202 330 l 1xea
 52 330 l 1
 52 480 l 1xe6
232 180 m 2
 202 180 202 181.0234375 202 150.51171875 c 0xca
 202 120 202 120 232 120 c 2
 292 120 l 2
 322 120 322 120 322 150 c 0
 322 180 322 180 292 180 c 2
 232 180 l 2
EndSplineSet
Validated: 524321
EndChar

StartChar: b
Encoding: 98 98 98
Width: 643
VWidth: 0
Flags: W
HStem: 0 120<337.685 440.961> 360 120<336.688 440.961> 540 120<21 141>
VStem: 141 180<16.6855 60 120 360 420 540> 441 180<120.039 359.961>
LayerCount: 2
UndoRedoHistory
Layer: 0
Undoes
EndUndoes
Redoes
EndRedoes
EndUndoRedoHistory
UndoRedoHistory
Layer: 1
Undoes
EndUndoes
Redoes
EndRedoes
EndUndoRedoHistory
Fore
SplineSet
21 660 m 1
 321 660 l 1
 321 420 l 2
 321 452.696289062 351 480 381 480 c 2
 501 480 l 2
 591 480 621 450 621 360 c 2
 621 120 l 2
 621 30 591 0 501 0 c 2
 381 0 l 2
 351 0 321 30 321 60 c 1
 321 30 291 0 261 0 c 2
 141 0 l 1
 141 540 l 1
 21 540 l 1
 21 660 l 1
321 360 m 1
 321 120 l 1
 411 120 l 2
 441 120 441 120 441 150 c 2
 441 330 l 2
 441 360 441 360 411 360 c 2
 321 360 l 1
EndSplineSet
EndChar

StartChar: c
Encoding: 99 99 99
Width: 528
VWidth: 0
Flags: W
HStem: 0 180<353 366.315 383 503> 0 120<203.039 351.471> 300 180<353 366.315 383 503> 360 120<203.039 352.719>
VStem: 23 180<120.039 359.961> 353 150<120 180 300 360> 383 120<0 60 420 480>
LayerCount: 2
Fore
SplineSet
23 120 m 2x4a
 23 360 l 2
 23 450 53 480 143 480 c 2
 323 480 l 2x5a
 353 480 383 450 383 420 c 2
 383 480 l 1
 503 480 l 1x2a
 503 300 l 1
 353 300 l 1x2c
 353 360 l 1
 233 360 l 2
 203 360 203 360 203 330 c 2
 203 150 l 2
 203 120 203 120 233 120 c 2
 351.578125 120 l 1x5c
 353 180 l 1
 503 180 l 1x8c
 503 0 l 1
 383 0 l 1x8a
 383 60 l 2
 383 30 353 0 323 0 c 2
 143 0 l 2
 53 0 23 30 23 120 c 2x4a
EndSplineSet
Validated: 524289
EndChar

StartChar: d
Encoding: 100 100 100
Width: 585
VWidth: 0
Flags: W
HStem: 0 120<203.039 306.315 503 563> 360 120<203.039 306.315> 540 120<203 323>
VStem: 23 180<120.039 359.961> 323 180<120 360 420 540>
LayerCount: 2
Fore
SplineSet
503 660 m 1
 503 120 l 1
 563 120 l 1
 563 0 l 1
 383 0 l 2
 353 0 323 30 323 60 c 1
 323 30 293 0 263 0 c 2
 143 0 l 2
 53 0 23 30 23 120 c 2
 23 360 l 2
 23 450 53 480 143 480 c 2
 263 480 l 2
 293 480 323 450 323 420 c 2
 323 540 l 1
 203 540 l 1
 203 660 l 1
 503 660 l 1
323 360 m 1
 233 360 l 2
 203 360 203 360 203 330 c 2
 203 150 l 2
 203 120 203 120 233 120 c 2
 323 120 l 1
 323 360 l 1
EndSplineSet
Validated: 1
EndChar

StartChar: e
Encoding: 101 101 101
Width: 527
VWidth: 0
Flags: W
HStem: 0 150<353 366.315 383 503> 0 120<203.039 351.471> 180 120<203 353> 360 120<203.039 352.957>
VStem: 23 180<120.039 180 300 359.961> 353 150<120 150 300 359.917> 383 120<0 60>
LayerCount: 2
Fore
SplineSet
143 480 m 2x7a
 383 480 l 2
 473 480 503 450 503 360 c 2
 503 180 l 1x7a
 353 180 l 1
 203 180 l 1
 203 150 l 2xbc
 203 120 203 120 233 120 c 2
 351.5 120 l 1x7c
 353 150 l 1
 503 150 l 1xbc
 503 0 l 1
 383 0 l 1xba
 383 60 l 2
 383 30 353 0 323 0 c 2
 143 0 l 2
 53 0 23 30 23 120 c 2
 23 360 l 2
 23 450 53 480 143 480 c 2x7a
203 330 m 2
 203 300 l 1
 353 300 l 1
 353 330 l 2x3c
 353 360 353 360 320 360 c 2
 233 360 l 2
 203 360 203 360 203 330 c 2
EndSplineSet
Validated: 524289
EndChar

StartChar: f
Encoding: 102 102 102
Width: 555
VWidth: 0
Flags: W
HStem: 0 120<23 83 263 323> 360 120<23 83 263 323> 510 150<383 383 413 533> 540 120<263.039 382.919>
VStem: 23 300<0 120 360 480> 83 180<120 360 480 539.961> 413 120<570 660>
LayerCount: 2
Fore
SplineSet
203 660 m 2xd6
 323 660 l 2xda
 383 660 413 630 413 570 c 2
 413 660 l 1
 533 660 l 1
 533 510 l 1
 383 510 l 1xea
 383 540 l 1
 293 540 l 2xda
 263 540 263 540 263 510 c 2
 263 480 l 1xe6
 323 480 l 1
 323 360 l 1xea
 263 360 l 1
 263 120 l 1xe6
 323 120 l 1
 323 0 l 1
 23 0 l 1
 23 120 l 1xea
 83 120 l 1
 83 360 l 1xe6
 23 360 l 1
 23 480 l 1xea
 83 480 l 1
 83 540 l 2
 83 630 113 660 203 660 c 2xd6
EndSplineSet
Validated: 1
EndChar

StartChar: g
Encoding: 103 103 103
Width: 585
VWidth: 0
Flags: W
HStem: -210 150<23 143 159.685 173> -210 120<173.281 323> 0 120<203.039 306.315> 360 120<203.039 323 503 563>
VStem: 23 180<120.039 359.961> 23 120<-210 -150> 323 180<-90 60 120 360> 443 120<420 480>
LayerCount: 2
Fore
SplineSet
143 480 m 2x76
 383 480 l 2
 413.106445312 479.97265625 443 450 443 420 c 2
 443 480 l 1
 563 480 l 1
 563 360 l 1x75
 503 360 l 1
 503 -93 l 2
 503 -180 473 -210 383 -210 c 2
 203 -210 l 2x7a
 173 -210 143 -180 143 -150 c 2
 143 -210 l 1
 23 -210 l 1
 23 -60 l 1
 173 -60 l 1xb4
 173 -90 173 -90 203 -90 c 2x78
 323 -90 l 1
 323 60 l 2
 323 30 293 0 263 0 c 2
 143 0 l 2
 53 0 23 30 23 120 c 2
 23 360 l 2
 23 450 53 480 143 480 c 2x76
233 360 m 2
 203 360 203 360 203 330 c 2
 203 150 l 2
 203 120 203 120 233 120 c 2
 323 120 l 1
 323 360 l 1x3a
 233 360 l 2
EndSplineSet
Validated: 524289
EndChar

StartChar: h
Encoding: 104 104 104
Width: 644
VWidth: 0
Flags: W
HStem: 0 120<22 82 262 292 352 382 562 622> 360 120<278.685 381.975> 540 120<22 82>
VStem: 82 180<120 359.963 420 540> 382 180<120 359.963>
LayerCount: 2
Fore
SplineSet
22 660 m 1
 262 660 l 1
 262 420 l 2
 262 450 292 480 322 480 c 2
 382 480 l 1
 442 480 l 2
 532 480 562 450 562 360 c 2
 562 120 l 1
 622 120 l 1
 622 0 l 1
 352 0 l 1
 352 120 l 1
 382 120 l 1
 382 331.5 l 2
 382 360 382 360 352 360 c 2
 292 360 l 2
 262 360 262 360 262 331.5 c 2
 262 118.3125 l 1
 292 120 l 1
 292 0 l 1
 22 0 l 1
 22 120 l 1
 82 120 l 1
 82 540 l 1
 22 540 l 1
 22 660 l 1
EndSplineSet
Validated: 524289
EndChar

StartChar: i
Encoding: 105 105 105
Width: 344
VWidth: 0
Flags: WO
HStem: 0 120<22 82 262 322> 360 120<22 82> 510 150<118.967 225.033>
VStem: 82 180<120 360> 97 150<531.967 638.033>
LayerCount: 2
UndoRedoHistory
Layer: 1
Undoes
EndUndoes
Redoes
EndRedoes
EndUndoRedoHistory
Fore
SplineSet
172 660 m 0xe8
 213.420898438 660 247 626.420898438 247 585 c 0
 247 543.579101562 213.420898438 510 172 510 c 0
 130.579101562 510 97 543.579101562 97 585 c 0
 97 626.420898438 130.579101562 660 172 660 c 0xe8
22 480 m 1
 262 480 l 1
 262 120 l 1
 322 120 l 1
 322 0 l 1
 22 0 l 1
 22 120 l 1
 82 120 l 1
 82 360 l 1xf0
 22 360 l 1
 22 480 l 1
EndSplineSet
Validated: 524289
EndChar

StartChar: j
Encoding: 106 106 106
Width: 465
VWidth: 0
Flags: W
HStem: -210 150<21 141 157.685 171> -210 120<171.281 261> 360 120<201 261> 510 150<297.967 404.033>
VStem: 21 120<-210 -150> 261 180<-90 360> 276 150<531.967 638.033>
LayerCount: 2
Fore
SplineSet
351 660 m 0x3a
 392.421875 660 426 626.420898438 426 585 c 0
 426 543.579101562 392.421875 510 351 510 c 0
 309.579101562 510 276 543.579101562 276 585 c 0
 276 626.420898438 309.579101562 660 351 660 c 0x3a
201 480 m 1
 441 480 l 1
 441 -90 l 2
 441 -180 411 -210 321 -210 c 2
 201 -210 l 2x7c
 171 -210 141 -180 141 -150 c 2
 141 -210 l 1
 21 -210 l 1
 21 -60 l 1
 171 -60 l 1xbc
 171 -90 l 1
 261 -90 l 1
 261 360 l 1x7c
 201 360 l 1
 201 480 l 1
EndSplineSet
Validated: 524289
EndChar

StartChar: k
Encoding: 107 107 107
Width: 646
VWidth: 0
Flags: W
HStem: 0 150<469.009 622> 0 120<22 82 262 322> 360 120<322 352 502 622> 540 120<22 82>
VStem: 82 180<270 540>
LayerCount: 2
Fore
SplineSet
22 660 m 1x78
 262 660 l 1
 262 270 l 1
 352 360 l 1
 322 360 l 1
 322 480 l 1
 622 480 l 1
 622 360 l 1
 502 360 l 1
 412 270 l 1
 442 180 472 150 532 150 c 2
 622 150 l 1
 622 0 l 1
 532 0 l 2xb8
 412 0 382 90 322 180 c 1
 262 120 l 1
 322 120 l 1
 322 0 l 1
 22 0 l 1
 22 120 l 1
 82 120 l 1
 82 540 l 1
 22 540 l 1
 22 660 l 1x78
EndSplineSet
Validated: 1
EndChar

StartChar: l
Encoding: 108 108 108
Width: 404
VWidth: 0
Flags: W
HStem: 0 120<22 82 262 382> 540 120<22 82>
VStem: 82 180<120 540>
LayerCount: 2
Fore
SplineSet
22 660 m 1
 262 660 l 1
 262 120 l 1
 382 120 l 1
 382 0 l 1
 22 0 l 1
 22 120 l 1
 82 120 l 1
 82 540 l 1
 22 540 l 1
 22 660 l 1
EndSplineSet
Validated: 1
EndChar

StartChar: m
Encoding: 109 109 109
Width: 946
VWidth: 0
Flags: W
HStem: 0.00195312 120<24 84 263.999 293.999 353.998 383.998 563.997 593.997 653.997 683.997 863.996 923.995> 359.998 120.002<24 84 280.684 383.959 580.683 683.958>
VStem: 84 179.999<119.999 359.998> 383.998 179.999<120.128 359.959> 683.997 179.999<120.002 359.962>
LayerCount: 2
Fore
SplineSet
24 479.998046875 m 1
 263.999023438 480 l 1
 263.999023438 420 l 2
 263.999023438 450 293.999023438 480 323.998046875 480 c 2
 503.998046875 480 l 2
 533.997070312 480 563.997070312 450 563.997070312 420 c 1
 563.997070312 450 593.997070312 480 623.997070312 480 c 2
 743.99609375 480 l 2
 833.99609375 480 863.99609375 450 863.99609375 360.000976562 c 2
 863.99609375 120.001953125 l 1
 923.995117188 120.001953125 l 1
 923.995117188 0.001953125 l 1
 653.997070312 0.001953125 l 1
 653.997070312 120.001953125 l 1
 683.997070312 120.001953125 l 1
 683.997070312 330.000976562 l 2
 683.997070312 360.000976562 683.997070312 360.000976562 653.997070312 360.000976562 c 2
 563.997070312 360.000976562 l 1
 563.997070312 120.001953125 l 1
 593.997070312 120.001953125 l 1
 593.997070312 0.001953125 l 1
 353.998046875 0.001953125 l 1
 353.998046875 120.001953125 l 1
 383.998046875 120.127929688 l 1
 383.998046875 329.998046875 l 2
 383.998046875 359.998046875 383.998046875 359.998046875 353.998046875 359.998046875 c 2
 263.999023438 359.998046875 l 1
 263.999023438 119.999023438 l 1
 293.999023438 119.999023438 l 1
 293.999023438 0 l 1
 24 0 l 1
 24 119.999023438 l 1
 84 119.999023438 l 1
 84 359.998046875 l 1
 24 359.998046875 l 1
 24 479.998046875 l 1
EndSplineSet
Validated: 524289
EndChar

StartChar: n
Encoding: 110 110 110
Width: 646
VWidth: 0
Flags: W
HStem: 0 120<24 84 264 294 354 384 564 624> 360 120<24 84 280.685 383.961>
VStem: 84 180<120 360> 384 180<120 359.961>
LayerCount: 2
Fore
SplineSet
24 480 m 1
 264 480 l 1
 264 420 l 2
 264 450 294 480 324 480 c 2
 444 480 l 2
 534 480 564 450 564 360 c 2
 564 120 l 1
 624 120 l 1
 624 0 l 1
 354 0 l 1
 354 120 l 1
 384 120 l 1
 384 330 l 2
 384 360 384 360 354 360 c 2
 264 360 l 1
 264 120 l 1
 294 120 l 1
 294 0 l 1
 24 0 l 1
 24 120 l 1
 84 120 l 1
 84 360 l 1
 24 360 l 1
 24 480 l 1
EndSplineSet
Validated: 1
EndChar

StartChar: o
Encoding: 111 111 111
Width: 555
VWidth: 0
Flags: W
HStem: 0.00195312 119.999<204.569 349.928> 360.001 119.999<206.069 350.082>
VStem: 23 179.999<121.571 358.17> 351.498 179.999<121.569 358.664>
LayerCount: 2
Fore
SplineSet
144.499023438 480 m 2
 412.998046875 479.999023438 l 2
 502.7734375 479.999023438 532.323242188 449.999023438 532.997070312 360 c 1
 531.497070312 120 l 1
 528.80078125 29.9990234375 502.694335938 -0.0009765625 411.498046875 0 c 2
 145.696289062 0.001953125 l 2
 53 0.0009765625 23 30.0009765625 23 120.000976562 c 2
 24.5 360.000976562 l 2
 24.5 450 54.5 480 144.499023438 480 c 2
264.499023438 360.000976562 m 2
 204.499023438 360.000976562 204.499023438 360.000976562 204.499023438 300.000976562 c 2
 202.999023438 180 l 2
 202.999023438 120.000976562 202.999023438 120.000976562 262.999023438 120.000976562 c 2
 291.499023438 119.999023438 l 2
 351.498046875 119.999023438 351.498046875 119.999023438 351.498046875 179.998046875 c 2
 351.498046875 299.998046875 l 2
 351.125976562 360.000976562 352.998046875 359.999023438 292.999023438 359.999023438 c 2
 264.499023438 360.000976562 l 2
EndSplineSet
Validated: 524321
EndChar

StartChar: p
Encoding: 112 112 112
Width: 584
VWidth: 0
Flags: W
HStem: -180 120<22 82 262 322> 0 120<278.685 381.961> 360 120<22 82 278.685 381.961>
VStem: 82 180<-60 60 120 360> 382 180<120.039 359.961>
LayerCount: 2
Fore
SplineSet
22 480 m 1
 262 480 l 1
 262 420 l 2
 262 450 292 480 322 480 c 2
 442 480 l 2
 532 480 562 450 562 360 c 2
 562 120 l 2
 562 30 532 0 442 0 c 2
 322 0 l 2
 292 0 262 30 262 60 c 2
 262 -60 l 1
 322 -60 l 1
 322 -180 l 1
 22 -180 l 1
 22 -60 l 1
 82 -60 l 1
 82 360 l 1
 22 360 l 1
 22 480 l 1
262 360 m 1
 262 120 l 1
 352 120 l 2
 382 120 382 120 382 150 c 2
 382 330 l 2
 382 360 382 360 352 360 c 2
 262 360 l 1
EndSplineSet
Validated: 1
EndChar

StartChar: q
Encoding: 113 113 113
Width: 584
VWidth: 0
Flags: W
HStem: -180 120<503 563> 0 120<203.039 306.315> 360 120<203.039 306.315>
VStem: 23 180<120.039 359.961> 323 180<-60 60 120 360 420 480>
LayerCount: 2
Fore
SplineSet
503 480 m 1
 503 -60 l 1
 563 -60 l 1
 563 -180 l 1
 323 -180 l 1
 323 60 l 2
 323 30 293 0 263 0 c 2
 143 0 l 2
 53 0 23 30 23 120 c 2
 23 360 l 2
 23 450 53 480 143 480 c 2
 263 480 l 2
 293 480 323 450 323 420 c 2
 323 480 l 1
 503 480 l 1
323 360 m 1
 233 360 l 2
 203 360 203 360 203 330 c 2
 203 150 l 2
 203 120 203 120 233 120 c 2
 323 120 l 1
 323 360 l 1
EndSplineSet
Validated: 1
EndChar

StartChar: r
Encoding: 114 114 114
Width: 587
VWidth: 0
Flags: W
HStem: 0 120<24 84 264 324> 360 120<24 84 280.685 443.719>
VStem: 84 180<120 343.315> 444 120<300 360> 474 90<390 480>
LayerCount: 2
Fore
SplineSet
24 480 m 1xf0
 264 480 l 1
 264 420 l 2
 264 450 294 480 324 480 c 2
 414 480 l 2
 444 480 474 450 474 390 c 2
 474 480 l 1
 564 480 l 1xe8
 564 300 l 1
 444 300 l 1
 444 360 l 1
 324 360 l 2
 294 360 264 330 264 300 c 2
 264 120 l 1
 324 120 l 1
 324 0 l 1
 24 0 l 1
 24 120 l 1
 84 120 l 1
 84 360 l 1
 24 360 l 1
 24 480 l 1xf0
EndSplineSet
Validated: 1
EndChar

StartChar: s
Encoding: 115 115 115
Width: 559
VWidth: 0
Flags: W
HStem: 0 150.471<24.5059 144.883 174.977 174.977> 0 120.377<175.058 355.503> 178.88 120.377<203.605 355.502> 329.352 150.468<414.225 534.602> 359.445 120.374<203.605 383.434>
VStem: 23 180.565<299.296 359.406> 24.5059 120.377<0 90.2822> 414.225 121.883<389.537 479.819>
LayerCount: 2
UndoRedoHistory
Layer: 1
Undoes
EndUndoes
Redoes
EndRedoes
EndUndoRedoHistory
Fore
SplineSet
143.376953125 480 m 2xad
 323.942382812 479.819335938 l 2
 384.130859375 479.819335938 414.224609375 449.725585938 414.224609375 389.537109375 c 2
 414.224609375 479.819335938 l 1x35
 536.107421875 480 l 1x2d
 534.6015625 329.3515625 l 1
 384.130859375 329.3515625 l 1x35
 384.130859375 359.4453125 384.130859375 359.4453125 354.036132812 359.4453125 c 2
 233.659179688 359.4453125 l 2x2d
 203.565429688 359.4453125 203.565429688 359.4453125 203.565429688 329.3515625 c 0
 203.565429688 299.256835938 203.565429688 299.256835938 233.659179688 299.256835938 c 2
 414.225585938 299.4375 l 2
 504.508789062 299.4375 536.107421875 270.84765625 536.107421875 180.565429688 c 2
 536.107421875 120.376953125 l 2
 536.107421875 30.09375 506.013671875 0 415.73046875 0 c 2
 235.165039062 0 l 2x75
 174.9765625 0 144.8828125 30.09375 144.8828125 90.2822265625 c 2
 144.8828125 0 l 1
 24.505859375 0 l 1
 24.505859375 150.470703125 l 1
 174.9765625 150.470703125 l 1xa3
 174.9765625 120.376953125 174.9765625 120.376953125 205.071289062 120.376953125 c 2
 325.448242188 120.376953125 l 2x63
 355.541992188 120.376953125 355.541992188 120.376953125 355.541992188 150.470703125 c 0
 355.541992188 180.565429688 354.036132812 178.879882812 323.942382812 178.879882812 c 2
 143.376953125 178.879882812 l 2
 53.09375 178.879882812 23 208.974609375 23 299.256835938 c 2
 23 359.4453125 l 2
 23 448.225585938 53.09375 480 143.376953125 480 c 2xad
EndSplineSet
Validated: 524321
EndChar

StartChar: t
Encoding: 116 116 116
Width: 585
VWidth: 0
Flags: W
HStem: 0 180<412 425.315 442 562> 0 120<322.039 411.719> 360 120<22 142 322 442> 640 20G<142 322>
VStem: 142 180<120.039 360 480 660> 442 120<0 60>
LayerCount: 2
Fore
SplineSet
142 660 m 1x7c
 322 660 l 1
 322 480 l 1
 442 480 l 1
 442 360 l 1
 322 360 l 1
 322 150 l 2
 322 120 322 120 352 120 c 2
 382 120 l 2x7c
 412 120 412 120 412 150 c 2
 412 180 l 1
 562 180 l 1
 562 0 l 1
 442 0 l 1xbc
 442 60 l 2
 442 30 412 0 382 0 c 2
 262 0 l 2
 172 0 142 30 142 120 c 2
 142 240 l 1
 142 360 l 1
 22 360 l 1
 22 480 l 1
 142 480 l 1
 142 660 l 1x7c
EndSplineSet
Validated: 1
EndChar

StartChar: u
Encoding: 117 117 117
Width: 646
VWidth: 0
Flags: W
HStem: 0 120<262.039 365.315 562 622> 360 120<22 82 262 292 352 382 562 622>
VStem: 82 180<120.039 360> 382 180<120 360>
LayerCount: 2
Fore
SplineSet
622 0 m 1
 382 0 l 1
 382 60 l 2
 382 30 352 0 322 0 c 2
 202 0 l 2
 112 0 82 30 82 120 c 2
 82 360 l 1
 22 360 l 1
 22 480 l 1
 292 480 l 1
 292 360 l 1
 262 360 l 1
 262 150 l 2
 262 120 262 120 292 120 c 2
 382 120 l 1
 382 360 l 1
 352 360 l 1
 352 480 l 1
 622 480 l 1
 622 360 l 1
 562 360 l 1
 562 120 l 1
 622 120 l 1
 622 0 l 1
EndSplineSet
Validated: 1
EndChar

StartChar: v
Encoding: 118 118 118
Width: 704
VWidth: 0
Flags: W
HStem: 0 21G<280.333 423.667> 360 120<22 82 262 322 382 442 622 682>
LayerCount: 2
Fore
SplineSet
682 480 m 1
 682 360 l 1
 622 360 l 1
 412 0 l 1
 292 0 l 1
 82 360 l 1
 22 360 l 1
 22 480 l 1
 322 480 l 1
 322 360 l 1
 262 360 l 1
 352 180 l 1
 442 360 l 1
 382 360 l 1
 382 480 l 1
 682 480 l 1
EndSplineSet
Validated: 1
EndChar

StartChar: w
Encoding: 119 119 119
Width: 884
VWidth: 0
Flags: W
HStem: 0 21G<195.333 388.667 495.333 688.667> 360 120<22 82 262 322 562 622 802 862>
LayerCount: 2
Fore
SplineSet
22 360 m 1
 22 480 l 1
 322 480 l 1
 322 360 l 1
 262 360 l 1
 306.629882812 150 l 1
 412 420 l 1
 472 420 l 1
 578.5 150 l 1
 622 360 l 1
 562 360 l 1
 562 480 l 1
 862 480 l 1
 862 360 l 1
 802 360 l 1
 682 0 l 1
 502 0 l 1
 442 180 l 1
 382 0 l 1
 202 0 l 1
 82 360 l 1
 22 360 l 1
EndSplineSet
Validated: 524289
EndChar

StartChar: x
Encoding: 120 120 120
Width: 558
VWidth: 0
Flags: W
HStem: 0 120<24 114 444 534> 360 120<24 114 444 534>
LayerCount: 2
Fore
SplineSet
24 480 m 1
 234 480 l 1
 279.680664062 360 l 1
 324 480 l 1
 534 480 l 1
 534 360 l 1
 444 360 l 1
 384 240 l 1
 444 120 l 1
 534 120 l 1
 534 0 l 1
 324 0 l 1
 279.530273438 120 l 1
 234 0 l 1
 24 0 l 1
 24 120 l 1
 114 120 l 1
 174 240 l 1
 114 360 l 1
 24 360 l 1
 24 480 l 1
EndSplineSet
Validated: 524289
EndChar

StartChar: y
Encoding: 121 121 121
Width: 644
VWidth: 0
Flags: W
HStem: -210 150<82 202 218.685 232> -210 120<232.281 382> 0 120<262.039 365.315> 360 120<22 82 262 292 352 382 562 622>
VStem: 82 180<120.039 360> 82 120<-210 -150> 382 180<-90 60 120 360>
LayerCount: 2
Fore
SplineSet
262 -90 m 2x7a
 382 -90 l 1
 382 60 l 2
 382 30 352 0 322 0 c 2
 202 0 l 2
 112 0 82 30 82 120 c 2x76
 82 360 l 1
 22 360 l 1
 22 480 l 1
 292 480 l 1
 292 360 l 1
 262 360 l 1
 262 150 l 2
 262 120 262 120 292 120 c 2
 382 120 l 1
 382 360 l 1
 352 360 l 1
 352 480 l 1
 622 480 l 1
 622 360 l 1
 562 360 l 1
 562 -93 l 2
 562 -180 532 -210 442 -210 c 2
 262 -210 l 2x7a
 232 -210 202 -180 202 -150 c 2
 202 -210 l 1
 82 -210 l 1
 82 -60 l 1
 232 -60 l 1xb6
 232 -90 232 -90 262 -90 c 2x7a
EndSplineSet
Validated: 1
EndChar

StartChar: z
Encoding: 122 122 122
Width: 588
VWidth: 0
Flags: W
HStem: 0 180<445.512 564> 0 120<234 412.271> 300 180<24.001 144.001> 360 120<176.095 354>
VStem: 24.001 120.365<390 480> 445.512 118.488<0 90>
LayerCount: 2
Fore
SplineSet
24.0009765625 480 m 1x2c
 144.000976562 480 l 1x2c
 144.366210938 390 l 2
 144.366210938 450 174.366210938 480 234.366210938 480 c 2
 564 480 l 1
 564 360 l 1
 234 120 l 1
 354 120 l 2x5c
 414 120 414 120 414 180 c 1
 564 180 l 1x8c
 564 120 l 1x4c
 564 0 l 1
 445.51171875 0 l 1x8c
 444 90 l 1
 444 30 414 0 354 0 c 2
 24 0 l 1
 24 120 l 1
 354 360 l 1
 234.366210938 360 l 2x5c
 174.366210938 360 174.366210938 360 174.366210938 300 c 1
 24 300 l 1
 24.0009765625 480 l 1x2c
EndSplineSet
Validated: 524289
EndChar

